# xmcd CD database file
#
# Track frame offsets:
#	182
#	13075
#	23260
#	34930
#	52787
#	65635
#	80365
#	91287
#	102977
#	119110
#	130460
#	141705
#	154067
#	165245
#	175997
#	189595
#	205920
#	219307
#
# Disc length: 3049 seconds
#
# Revision: 4
# Processed by: cddbd v1.5.2PL0 Copyright (c) Steve Scherf et al.
# Submitted via: CDex 1.70beta2
#
DISCID=f90be712
DTITLE=Various Artist - Soul Ballads - 18 classic tracks
DYEAR=1992
DGENRE=Blues
TTITLE0=Ben E King - Spanish Harlem
TTITLE1=Louis Armstrong - What a wonderful world
TTITLE2=The Platters - Only you
TTITLE3=Brook Benton - A rainy night in Georgia
TTITLE4=The Dells - Oh what a night
TTITLE5=Percy Sledge - Warm and tender love
TTITLE6=Sam and Dave - Bring it on home to me
TTITLE7=The Drifters - Up on the roof
TTITLE8=Nina Simone - My baby just care for me
TTITLE9=Otis Redding - These arms of mine
TTITLE10=Gene Chandler - Daddy's home
TTITLE11=Jerry Butler - He will break your heart
TTITLE12=Paul and Paula - Hey Paula
TTITLE13=The Fleetwoods - Come softly to me
TTITLE14=Aaron Neville - Tell it like it is
TTITLE15=Ray Charles - Giorgia on my mind
TTITLE16=Ben E King and The Drifters - Stand by me
TTITLE17=Sam Cooke - Wonderful world
EXTD=YEAR: 1992
EXTT0=
EXTT1=
EXTT2=
EXTT3=
EXTT4=
EXTT5=
EXTT6=
EXTT7=
EXTT8=
EXTT9=
EXTT10=
EXTT11=
EXTT12=
EXTT13=
EXTT14=
EXTT15=
EXTT16=
EXTT17=
PLAYORDER=
